<svg viewBox="0 0 1200 800" xmlns="http://www.w3.org/2000/svg">
  <rect width="1200" height="800" fill="#FBF7F0"/>
  <circle cx="600" cy="330" r="160" fill="none" stroke="#9A7B4F" stroke-width="5" opacity="0.4"/>
  <circle cx="600" cy="330" r="120" fill="none" stroke="#9A7B4F" stroke-width="2" opacity="0.25"/>
  <path d="M525 330h150v58a42 42 0 0 1-42 42h-66a42 42 0 0 1-42-42V330z" fill="none" stroke="#322B22" stroke-width="8" stroke-linejoin="round"/>
  <path d="M675 343h30a28 28 0 0 1 0 56h-30" fill="none" stroke="#322B22" stroke-width="8"/>
  <path d="M555 300c0-15 13-17 13-33M593 300c0-15 13-17 13-33" fill="none" stroke="#9A7B4F" stroke-width="7" stroke-linecap="round"/>
  <line x1="480" y1="420" x2="720" y2="420" stroke="#9A7B4F" stroke-width="2" opacity="0.5"/>
  <text x="600" y="545" font-family="Georgia,serif" font-size="100" font-style="italic" fill="#322B22" text-anchor="middle" letter-spacing="-1">Café Niki</text>
  <text x="600" y="607" font-family="Helvetica Neue,sans-serif" font-size="22" letter-spacing="10" fill="#9A7B4F" text-anchor="middle">BERLIN</text>
  <text x="600" y="645" font-family="Helvetica Neue,sans-serif" font-size="14" letter-spacing="4" fill="#9A7B4F" text-anchor="middle" opacity="0.7">KASTANIENALLEE · PRENZLAUER BERG</text>
</svg>
